<?xml version="1.0" encoding="utf-8"?>
<svg version="1.1" xmlns:xlink="http://www.w3.org/1999/xlink" width="19px" height="15px" xmlns="http://www.w3.org/2000/svg">
  <g transform="matrix(1 0 0 1 -11 -13 )">
    <path d="M 18.6567741935484 2.07070707070707  C 18.8855913978495 2.30639730639731  19 2.59259259259259  19 2.92929292929293  C 19 3.26599326599326  18.8855913978495 3.55218855218855  18.6567741935484 3.78787878787879  L 9.78193548387097 12.9292929292929  L 8.11483870967742 14.6464646464646  C 7.88602150537634 14.8821548821549  7.60817204301075 15  7.28129032258065 15  C 6.95440860215054 15  6.67655913978495 14.8821548821549  6.44774193548387 14.6464646464646  L 4.78064516129032 12.9292929292929  L 0.343225806451613 8.35858585858586  C 0.114408602150538 8.12289562289562  0 7.83670033670034  0 7.5  C 0 7.16329966329966  0.114408602150538 6.87710437710438  0.343225806451613 6.64141414141414  L 2.01032258064516 4.92424242424242  C 2.23913978494624 4.68855218855219  2.51698924731183 4.57070707070707  2.84387096774194 4.57070707070707  C 3.17075268817204 4.57070707070707  3.44860215053763 4.68855218855219  3.67741935483871 4.92424242424242  L 7.28129032258065 8.6489898989899  L 15.3225806451613 0.353535353535354  C 15.5513978494624 0.117845117845117  15.829247311828 0  16.1561290322581 0  C 16.4830107526882 0  16.7608602150538 0.117845117845117  16.9896774193548 0.353535353535354  L 18.6567741935484 2.07070707070707  Z " fill-rule="nonzero" fill="#000000" stroke="none" transform="matrix(1 0 0 1 11 13 )" />
  </g>
</svg>