<?xml version="1.0" encoding="utf-8"?>
<svg version="1.1" xmlns:xlink="http://www.w3.org/1999/xlink" width="26px" height="29px" xmlns="http://www.w3.org/2000/svg">
  <g transform="matrix(1 0 0 1 -483 -16 )">
    <path d="M 9.28835227272727 11.044921875  C 9.39914772727273 11.158203125  9.45454545454546 11.3029513888889  9.45454545454546 11.4791666666667  L 9.45454545454546 22.3541666666667  C 9.45454545454546 22.5303819444444  9.39914772727273 22.6751302083333  9.28835227272727 22.7884114583333  C 9.17755681818182 22.9016927083333  9.03598484848485 22.9583333333333  8.86363636363636 22.9583333333333  L 7.68181818181818 22.9583333333333  C 7.5094696969697 22.9583333333333  7.36789772727273 22.9016927083333  7.25710227272727 22.7884114583333  C 7.14630681818182 22.6751302083333  7.09090909090909 22.5303819444444  7 22.3541666666667  L 7 11.4791666666667  C 7.09090909090909 11.3029513888889  7.14630681818182 11.158203125  7.25710227272727 11.044921875  C 7.36789772727273 10.931640625  7.5094696969697 10.875  7.68181818181818 10.875  L 8.86363636363636 10.875  C 9.03598484848485 10.875  9.17755681818182 10.931640625  9.28835227272727 11.044921875  Z M 14.015625 11.044921875  C 14.1264204545455 11.158203125  14.1818181818182 11.3029513888889  14 11.4791666666667  L 14 22.3541666666667  C 14.1818181818182 22.5303819444444  14.1264204545455 22.6751302083333  14.015625 22.7884114583333  C 13.9048295454545 22.9016927083333  13.7632575757576 22.9583333333333  13.5909090909091 22.9583333333333  L 12.4090909090909 22.9583333333333  C 12.2367424242424 22.9583333333333  12.0951704545455 22.9016927083333  11.984375 22.7884114583333  C 11.8735795454545 22.6751302083333  11.8181818181818 22.5303819444444  12 22.3541666666667  L 12 11.4791666666667  C 11.8181818181818 11.3029513888889  11.8735795454545 11.158203125  11.984375 11.044921875  C 12.0951704545455 10.931640625  12.2367424242424 10.875  12.4090909090909 10.875  L 13.5909090909091 10.875  C 13.7632575757576 10.875  13.9048295454545 10.931640625  14.015625 11.044921875  Z M 18.7428977272727 11.044921875  C 18.8536931818182 11.158203125  18.9090909090909 11.3029513888889  19 11.4791666666667  L 19 22.3541666666667  C 18.9090909090909 22.5303819444444  18.8536931818182 22.6751302083333  18.7428977272727 22.7884114583333  C 18.6321022727273 22.9016927083333  18.4905303030303 22.9583333333333  18.3181818181818 22.9583333333333  L 17.1363636363636 22.9583333333333  C 16.9640151515152 22.9583333333333  16.8224431818182 22.9016927083333  16.7116477272727 22.7884114583333  C 16.6008522727273 22.6751302083333  16.5454545454545 22.5303819444444  16.5454545454545 22.3541666666667  L 16.5454545454545 11.4791666666667  C 16.5454545454545 11.3029513888889  16.6008522727273 11.158203125  16.7116477272727 11.044921875  C 16.8224431818182 10.931640625  16.9640151515152 10.875  17.1363636363636 10.875  L 18.3181818181818 10.875  C 18.4905303030303 10.875  18.6321022727273 10.931640625  18.7428977272727 11.044921875  Z M 21.1434659090909 25.9130859375  C 21.2296401515152 25.6802300347222  21.2727272727273 25.4253472222222  21 25.1484375  L 21 7.25  L 5 7.25  L 5 25.1484375  C 4.72727272727273 25.4253472222222  4.77035984848485 25.6802300347222  4.85653409090909 25.9130859375  C 4.94270833333333 26.1459418402778  5.03196022727273 26.3158637152778  5.12428977272727 26.4228515625  C 5.21661931818182 26.5298394097222  5.28125 26.5833333333333  5.31818181818182 26.5833333333333  L 20.6818181818182 26.5833333333333  C 20.71875 26.5833333333333  20.7833806818182 26.5298394097222  20.8757102272727 26.4228515625  C 20.9680397727273 26.3158637152778  21.0572916666667 26.1459418402778  21.1434659090909 25.9130859375  Z M 9.76846590909091 2.62434895833333  L 8.86363636363636 4.83333333333333  L 17.1363636363636 4.83333333333333  L 16.25 2.62434895833333  C 16.1638257575758 2.51106770833333  16.0591856060606 2.44184027777778  15.9360795454545 2.41666666666667  L 10.0823863636364 2.41666666666667  C 9.9592803030303 2.44184027777778  9.85464015151515 2.51106770833333  9.76846590909091 2.62434895833333  Z M 25.8338068181818 5.00325520833333  C 25.9446022727273 5.11653645833333  26 5.26128472222222  26 5.4375  L 26 6.64583333333333  C 26 6.82204861111111  25.9446022727273 6.966796875  25.8338068181818 7.080078125  C 25.7230113636364 7.193359375  25.5814393939394 7.25  25.4090909090909 7.25  L 23.6363636363636 7.25  L 23.6363636363636 25.1484375  C 23.6363636363636 26.1931423611111  23.3470643939394 27.0962456597222  22.7684659090909 27.8577473958333  C 22.1898674242424 28.6192491319444  21.4943181818182 29  20.6818181818182 29  L 5.31818181818182 29  C 4.50568181818182 29  3.81013257575758 28.6318359375  3.23153409090909 27.8955078125  C 2.65293560606061 27.1591796875  2.36363636363636 26.2686631944444  2.36363636363636 25.2239583333333  L 2.36363636363636 7.25  L 0.590909090909091 7.25  C 0.418560606060606 7.25  0.276988636363636 7.193359375  0.166193181818182 7.080078125  C 0.0553977272727273 6.966796875  0 6.82204861111111  0 6.64583333333333  L 0 5.4375  C 0 5.26128472222222  0.0553977272727273 5.11653645833333  0.166193181818182 5.00325520833333  C 0.276988636363636 4.88997395833333  0.418560606060606 4.83333333333333  0.590909090909091 4.83333333333333  L 6.296875 4.83333333333333  L 7.58948863636364 1.68033854166667  C 7.77414772727273 1.21462673611111  8.10653409090909 0.818142361111109  8.58664772727273 0.490885416666668  C 9.06676136363637 0.16362847222222  9.5530303030303 0  10.0454545454545 0  L 15.9545454545455 0  C 16.4469696969697 0  16.9332386363636 0.16362847222222  17.4133522727273 0.490885416666668  C 17.8934659090909 0.818142361111109  18.2258522727273 1.21462673611111  18.4105113636364 1.68033854166667  L 19.703125 4.83333333333333  L 25.4090909090909 4.83333333333333  C 25.5814393939394 4.83333333333333  25.7230113636364 4.88997395833333  25.8338068181818 5.00325520833333  Z " fill-rule="nonzero" fill="#000000" stroke="none" transform="matrix(1 0 0 1 483 16 )" />
  </g>
</svg>