<?xml version="1.0" encoding="utf-8"?>
<!-- Generator: Adobe Illustrator 26.2.1, SVG Export Plug-In . SVG Version: 6.00 Build 0)  -->
<svg version="1.1" id="Ebene_1" xmlns="http://www.w3.org/2000/svg" xmlns:xlink="http://www.w3.org/1999/xlink" x="0px" y="0px"
	 viewBox="0 0 74.94 74.94" style="enable-background:new 0 0 74.94 74.94;" xml:space="preserve">
<style type="text/css">
	.st0{fill:#020203;}
</style>
<g>
	<g>
		<g>
			<path class="st0" d="M49.96,27.14c0,1.24-1,2.24-2.24,2.24s-2.24-1.01-2.24-2.24c0-1.24,1.01-2.24,2.24-2.24
				S49.96,25.9,49.96,27.14z M47.16,37.2c0,5.2-4.23,9.43-9.43,9.43c-5.2,0-9.43-4.23-9.43-9.43c0-5.2,4.23-9.43,9.43-9.43
				C42.93,27.77,47.16,32,47.16,37.2z M43.77,37.2c0-3.33-2.71-6.04-6.04-6.04c-3.33,0-6.04,2.71-6.04,6.04
				c0,3.33,2.71,6.04,6.04,6.04C41.06,43.24,43.77,40.53,43.77,37.2z M56.82,29.62c0-6.35-5.15-11.5-11.5-11.5H29.62
				c-6.35,0-11.5,5.15-11.5,11.5v15.69c0,6.35,5.15,11.5,11.5,11.5h15.69c6.35,0,11.5-5.15,11.5-11.5V29.62z M53.04,45.14
				c0,4.36-3.54,7.9-7.9,7.9H29.8c-4.36,0-7.9-3.54-7.9-7.9V29.8c0-4.36,3.54-7.9,7.9-7.9h15.35c4.36,0,7.9,3.54,7.9,7.9V45.14z"/>
		</g>
		<path class="st0" d="M37.47,0C16.81,0,0,16.81,0,37.47c0,20.66,16.81,37.47,37.47,37.47s37.47-16.81,37.47-37.47
			C74.94,16.81,58.13,0,37.47,0z M37.47,70.13c-18.01,0-32.66-14.65-32.66-32.66c0-18.01,14.65-32.66,32.66-32.66
			c18.01,0,32.66,14.65,32.66,32.66C70.13,55.48,55.48,70.13,37.47,70.13z"/>
	</g>
</g>
</svg>
