<?xml version="1.0" encoding="utf-8"?>
<!-- Generator: Adobe Illustrator 26.2.1, SVG Export Plug-In . SVG Version: 6.00 Build 0)  -->
<svg version="1.1" id="Ebene_1" xmlns="http://www.w3.org/2000/svg" xmlns:xlink="http://www.w3.org/1999/xlink" x="0px" y="0px"
	 viewBox="0 0 74.94 74.94" style="enable-background:new 0 0 74.94 74.94;" xml:space="preserve">
<style type="text/css">
	.st0{fill:#020203;}
</style>
<g>
	<g>
		<path class="st0" d="M57.48,32.53c0-4.83-3.92-8.75-8.75-8.75H26.21c-4.83,0-8.75,3.92-8.75,8.75v9.88c0,4.83,3.92,8.75,8.75,8.75
			h22.53c4.83,0,8.75-3.92,8.75-8.75V32.53z M45.1,37.73L35.02,42.7c-0.39,0.21-1.77-0.07-1.77-0.52V31.98
			c0-0.45,1.39-0.74,1.78-0.51l9.63,5.23C45.06,36.93,45.51,37.51,45.1,37.73z"/>
	</g>
	<path class="st0" d="M37.47,0C16.81,0,0,16.81,0,37.47c0,20.66,16.81,37.47,37.47,37.47c20.66,0,37.47-16.81,37.47-37.47
		C74.94,16.81,58.13,0,37.47,0z M37.47,70.13C19.46,70.13,4.8,55.48,4.8,37.47c0-18.01,14.65-32.66,32.67-32.66
		s32.66,14.65,32.66,32.66C70.13,55.48,55.48,70.13,37.47,70.13z"/>
</g>
</svg>
