<?xml version="1.0" encoding="utf-8"?>
<!-- Generator: Adobe Illustrator 26.2.1, SVG Export Plug-In . SVG Version: 6.00 Build 0)  -->
<svg version="1.1" id="Ebene_1" xmlns="http://www.w3.org/2000/svg" xmlns:xlink="http://www.w3.org/1999/xlink" x="0px" y="0px"
	 viewBox="0 0 74.94 74.94" style="enable-background:new 0 0 74.94 74.94;" xml:space="preserve">
<style type="text/css">
	.st0{fill:#020203;}
</style>
<g>
	<g>
		<path class="st0" d="M20.77,27.86h7.17v23.02h-7.17V27.86z M24.35,16.42c2.29,0,4.15,1.86,4.15,4.15c0,2.29-1.86,4.15-4.15,4.15
			c-2.3,0-4.15-1.86-4.15-4.15C20.2,18.28,22.05,16.42,24.35,16.42 M32.42,50.88h7.15V39.49c0-3,0.57-5.91,4.29-5.91
			c3.67,0,3.72,3.43,3.72,6.11v11.19h7.15V38.25c0-6.2-1.34-10.97-8.58-10.97c-3.49,0-5.82,1.91-6.78,3.72h-0.09v-3.15h-6.87V50.88z
			"/>
	</g>
	<path class="st0" d="M37.47,0C16.81,0,0,16.81,0,37.47c0,20.66,16.81,37.47,37.47,37.47s37.47-16.81,37.47-37.47
		C74.94,16.81,58.13,0,37.47,0z M37.47,70.13c-18.01,0-32.66-14.65-32.66-32.67c0-18.01,14.65-32.66,32.66-32.66
		c18.01,0,32.67,14.65,32.67,32.66C70.13,55.48,55.48,70.13,37.47,70.13z"/>
</g>
</svg>
