<?xml version="1.0" encoding="utf-8"?>
<!-- Generator: Adobe Illustrator 26.2.1, SVG Export Plug-In . SVG Version: 6.00 Build 0)  -->
<svg version="1.1" id="Ebene_1" xmlns="http://www.w3.org/2000/svg" xmlns:xlink="http://www.w3.org/1999/xlink" x="0px" y="0px"
	 viewBox="0 0 401.22 117.86" style="enable-background:new 0 0 401.22 117.86;" xml:space="preserve">
<style type="text/css">
	.st0{fill:#FFFFFF;}
</style>
<g id="_x39_733uP.tif">
	<g>
		<path class="st0" d="M13.89,62.38c3.9,0,7.8,0.02,11.69-0.01c1.5-0.01,2.22,0.52,2.39,2.13c0.56,5.27,1.27,10.52,1.91,15.78
			c0.34,2.77,0.12,3.02-2.66,3.02c-6.55,0-13.1-0.07-19.66,0.03c-1.79,0.03-2.93-0.58-3.36-2.22c-1.4-5.43-2.76-10.87-4.08-16.32
			c-0.46-1.91,0.53-2.47,2.32-2.44c3.81,0.08,7.63,0.02,11.44,0.02C13.89,62.38,13.89,62.38,13.89,62.38z"/>
		<path class="st0" d="M104.71,62.4c3.81,0,7.63,0.07,11.44-0.03c1.77-0.05,2.37,0.62,2.27,2.33c-0.37,5.93-1.94,11.57-4.17,17.03
			c-0.31,0.74-1.63,1.5-2.5,1.52c-7.13,0.12-14.26,0.04-21.39,0.1c-1.36,0.01-1.84-0.57-1.69-1.78c0.71-5.92,1.39-11.84,2.25-17.73
			c0.08-0.57,1.36-1.36,2.11-1.39c3.89-0.14,7.79-0.06,11.69-0.06C104.71,62.38,104.71,62.39,104.71,62.4z"/>
		<path class="st0" d="M104.61,55.3c-3.9,0-7.79-0.05-11.69,0.02c-1.47,0.03-2.03-0.5-2.19-1.97c-0.58-5.43-1.27-10.85-1.97-16.27
			c-0.22-1.65,0.16-2.45,2.04-2.44c6.96,0.06,13.92-0.04,20.88,0.06c0.91,0.01,2.43,0.68,2.61,1.34c1.5,5.48,2.81,11.03,4.06,16.57
			c0.44,1.96-0.39,2.81-2.57,2.7c-3.72-0.18-7.46-0.05-11.19-0.05C104.61,55.28,104.61,55.29,104.61,55.3z"/>
		<path class="st0" d="M13.8,55.31c-3.9,0-7.8-0.06-11.7,0.03c-1.68,0.04-2.37-0.6-2-2.2C1.35,47.75,2.6,42.36,3.98,37
			c0.43-1.67,1.64-2.42,3.56-2.39c6.64,0.12,13.28,0.13,19.91,0.02c2.26-0.04,2.71,0.9,2.45,2.85c-0.7,5.26-1.39,10.52-1.97,15.79
			c-0.18,1.63-0.94,2.07-2.44,2.04c-3.9-0.06-7.8-0.02-11.7-0.02C13.8,55.29,13.8,55.3,13.8,55.31z"/>
		<path class="st0" d="M65.94,0.56c9.04-3.92,37.62,13.47,43.24,26.29c-0.98,0.18-1.88,0.49-2.77,0.49
			c-5.65,0.04-11.3-0.14-16.95,0.08c-2.6,0.1-3.77-0.96-4.49-3.21c-1.76-5.51-4.61-10.44-8.13-15.02
			C73.96,5.46,70.41,2.57,65.94,0.56z"/>
		<path class="st0" d="M52.19,117.86c-2.31-0.38-4.67-0.58-6.93-1.17c-14.3-3.73-25.95-11.42-34.51-23.56
			c-0.43-0.6-0.51-1.44-0.76-2.17c0.69-0.17,1.38-0.48,2.08-0.49c5.89-0.05,11.78,0,17.66-0.06c1.99-0.02,3.02,0.67,3.78,2.7
			c3.76,9.93,8.84,18.93,18.84,24.03C52.31,117.38,52.25,117.62,52.19,117.86z"/>
		<path class="st0" d="M108.97,90.87c-3.76,11.59-31.73,28.87-42.92,26.45c9.29-4.73,14.7-12.58,18.04-21.73
			c1.55-4.26,3.62-5.54,7.89-5.21c4.78,0.38,9.61,0.06,14.42,0.09C107.24,90.48,108.08,90.73,108.97,90.87z"/>
		<path class="st0" d="M52.24,0.09c-6.05,3.47-10.53,8.27-13.8,14.13c-1.93,3.45-3.45,7.14-4.98,10.8
			c-0.67,1.61-1.57,2.37-3.33,2.35c-6.14-0.04-12.28,0.01-18.42-0.01c-0.61,0-1.22-0.3-1.84-0.46c0.2-0.65,0.26-1.4,0.63-1.94
			C18.41,13.61,28.91,5.82,42.26,2c2.46-0.7,4.95-1.32,7.44-1.88C50.51-0.06,51.39,0.09,52.24,0.09z"/>
		<path class="st0" d="M55.63,72.97c0,2.82-0.03,5.63,0.01,8.45c0.02,1.46-0.5,2.02-2.07,1.97c-4.3-0.12-8.62-0.18-12.92-0.02
			c-2.1,0.08-3.15-0.76-3.41-2.68c-0.73-5.4-1.42-10.81-2.08-16.22c-0.18-1.49,0.66-2.09,2.08-2.09c5.47,0.02,10.93,0.04,16.4,0.01
			c1.55-0.01,2.01,0.73,1.99,2.14C55.6,67.34,55.64,70.15,55.63,72.97z"/>
		<path class="st0" d="M62.89,72.47c0-2.65,0.08-5.31-0.03-7.96c-0.06-1.49,0.4-2.14,1.93-2.13c5.64,0.04,11.29,0.04,16.93-0.01
			c1.7-0.01,2.17,0.75,1.95,2.32c-0.79,5.49-1.56,10.99-2.29,16.49c-0.21,1.55-1.06,2.11-2.53,2.11c-4.65-0.01-9.29-0.02-13.94,0.03
			c-1.53,0.01-2.04-0.72-2.02-2.14C62.93,78.28,62.9,75.37,62.89,72.47C62.9,72.47,62.89,72.47,62.89,72.47z"/>
		<path class="st0" d="M62.91,44.88c0-2.57,0.09-5.14-0.03-7.7c-0.09-1.8,0.48-2.57,2.37-2.54c4.47,0.07,8.95,0.04,13.42,0
			c1.7-0.01,2.57,0.66,2.8,2.41c0.67,5.17,1.4,10.32,2.17,15.48c0.3,2.03-0.35,2.85-2.5,2.81c-5.3-0.1-10.6-0.06-15.9,0.01
			c-1.66,0.02-2.41-0.47-2.33-2.27c0.13-2.73,0.03-5.46,0.03-8.2C62.92,44.88,62.92,44.88,62.91,44.88z"/>
		<path class="st0" d="M55.64,45.11c0,2.65-0.04,5.3,0.02,7.95c0.03,1.53-0.45,2.25-2.14,2.23c-5.39-0.07-10.77-0.04-16.16,0.03
			c-1.68,0.02-2.28-0.75-2.1-2.27c0.62-5.25,1.25-10.5,1.94-15.75c0.25-1.93,1.35-2.76,3.43-2.69c4.22,0.15,8.46,0.14,12.68-0.01
			c1.82-0.06,2.36,0.66,2.34,2.29c-0.04,2.73-0.01,5.47-0.01,8.2C55.63,45.11,55.63,45.11,55.64,45.11z"/>
		<path class="st0" d="M55.63,6.97c0,1.93,0,3.3,0,4.66c0,4.39-0.05,8.78,0.03,13.17c0.04,1.88-0.51,2.7-2.56,2.61
			c-3.56-0.15-7.12-0.06-10.69-0.04c-1.24,0-2.39-0.21-1.74-1.79c2.87-6.93,6.1-13.63,12.9-17.7C53.99,7.64,54.45,7.49,55.63,6.97z"
			/>
		<path class="st0" d="M63.31,7.18c4.2,1.51,6.98,4.52,9.22,7.85c2.06,3.07,3.49,6.57,5.2,9.89c0.86,1.67,0.4,2.49-1.54,2.47
			c-3.74-0.04-7.47-0.03-11.21-0.03c-1.18,0-2.14-0.14-2.13-1.71c0.05-5.81,0.04-11.62,0.07-17.43C62.92,7.99,63.08,7.77,63.31,7.18
			z"/>
		<path class="st0" d="M62.91,110.74c0-2.31,0-3.94,0-5.57c-0.01-4.15,0.02-8.3-0.07-12.45c-0.03-1.4,0.24-2.25,1.84-2.24
			c3.9,0.02,7.8-0.03,11.7-0.03c1.38,0,2.08,0.56,1.47,2.03c-2.62,6.25-5.7,12.19-11.28,16.39
			C65.69,109.53,64.58,109.9,62.91,110.74z"/>
		<path class="st0" d="M55.08,110.47c-4.77-2.14-7.85-5.75-10.29-9.94c-1.46-2.5-2.58-5.19-3.87-7.79c-0.81-1.63-0.23-2.31,1.51-2.3
			c3.74,0.03,7.47-0.06,11.2,0.1c0.68,0.03,1.89,1,1.9,1.56c0.11,5.8,0.02,11.61-0.03,17.42C55.5,109.75,55.31,109.97,55.08,110.47z
			"/>
	</g>
</g>
<g>
	<path class="st0" d="M214.35,93.83v16.65h-57.73V7.24h55.58v16.65h-35.71v24.97h33.7V65.1h-33.7v28.73H214.35z"/>
	<path class="st0" d="M229.65,110.47V7.24h19.87v103.24L229.65,110.47L229.65,110.47z"/>
	<path class="st0" d="M316.38,7.24l28.86,103.24h-20.81l-7.38-27.25h-27.66l-7.12,27.25h-20.14L291.41,7.24H316.38z M292.21,68.19
		h22.02l-6.18-23.49c-1.61-6.44-3.36-14.77-4.7-21.08h-0.4c-1.34,6.44-3.09,14.9-4.56,20.94L292.21,68.19z"/>
	<path class="st0" d="M401.22,110.47h-19.33V26.7h-0.27l-17.45,9.13l-4.3-14.23l24.7-12.62h16.65L401.22,110.47L401.22,110.47z"/>
</g>
</svg>
